<mxfile host="app.diagrams.net" modified="2023-05-15T17:27:51.088Z" agent="Mozilla/5.0 (Windows NT 10.0; Win64; x64) AppleWebKit/537.36 (KHTML, like Gecko) Chrome/113.0.0.0 Safari/537.36" etag="1X60ynq_K90Yy0d0WjDt" version="21.3.2" type="device">
  <diagram name="PÃ¡gina-1" id="9TofPLftgpDK5mt7VhUl">
    <mxGraphModel dx="2276" dy="579" grid="1" gridSize="10" guides="1" tooltips="1" connect="1" arrows="1" fold="1" page="1" pageScale="1" pageWidth="1169" pageHeight="827" math="0" shadow="0">
      <root>
        <mxCell id="0" />
        <mxCell id="1" parent="0" />
        <mxCell id="n4P5VJZT2qDZIV0dBhrq-5" style="edgeStyle=orthogonalEdgeStyle;rounded=0;orthogonalLoop=1;jettySize=auto;html=1;" parent="1" source="n4P5VJZT2qDZIV0dBhrq-1" target="n4P5VJZT2qDZIV0dBhrq-3" edge="1">
          <mxGeometry relative="1" as="geometry" />
        </mxCell>
        <mxCell id="n4P5VJZT2qDZIV0dBhrq-10" style="edgeStyle=orthogonalEdgeStyle;rounded=0;orthogonalLoop=1;jettySize=auto;html=1;entryX=-0.002;entryY=0.37;entryDx=0;entryDy=0;entryPerimeter=0;" parent="1" source="n4P5VJZT2qDZIV0dBhrq-1" target="n4P5VJZT2qDZIV0dBhrq-2" edge="1">
          <mxGeometry relative="1" as="geometry">
            <Array as="points">
              <mxPoint x="70" y="250" />
              <mxPoint x="100" y="250" />
              <mxPoint x="100" y="160" />
            </Array>
          </mxGeometry>
        </mxCell>
        <mxCell id="n4P5VJZT2qDZIV0dBhrq-29" style="edgeStyle=orthogonalEdgeStyle;rounded=0;orthogonalLoop=1;jettySize=auto;html=1;entryX=0;entryY=0.5;entryDx=0;entryDy=0;" parent="1" source="n4P5VJZT2qDZIV0dBhrq-1" target="n4P5VJZT2qDZIV0dBhrq-26" edge="1">
          <mxGeometry relative="1" as="geometry">
            <Array as="points">
              <mxPoint x="70" y="410" />
              <mxPoint x="155" y="410" />
              <mxPoint x="155" y="470" />
            </Array>
          </mxGeometry>
        </mxCell>
        <mxCell id="HGkdSzV-lQeWnVi4LRC6-6" style="edgeStyle=orthogonalEdgeStyle;rounded=0;orthogonalLoop=1;jettySize=auto;html=1;startArrow=classic;startFill=1;endArrow=none;endFill=0;" edge="1" parent="1" source="n4P5VJZT2qDZIV0dBhrq-1">
          <mxGeometry relative="1" as="geometry">
            <mxPoint x="-40" y="330" as="targetPoint" />
          </mxGeometry>
        </mxCell>
        <mxCell id="n4P5VJZT2qDZIV0dBhrq-1" value="1" style="ellipse;whiteSpace=wrap;html=1;aspect=fixed;" parent="1" vertex="1">
          <mxGeometry x="30" y="290" width="80" height="80" as="geometry" />
        </mxCell>
        <mxCell id="n4P5VJZT2qDZIV0dBhrq-15" style="edgeStyle=orthogonalEdgeStyle;rounded=0;orthogonalLoop=1;jettySize=auto;html=1;entryX=1;entryY=0.5;entryDx=0;entryDy=0;" parent="1" source="n4P5VJZT2qDZIV0dBhrq-2" target="n4P5VJZT2qDZIV0dBhrq-3" edge="1">
          <mxGeometry relative="1" as="geometry">
            <Array as="points">
              <mxPoint x="300" y="190" />
              <mxPoint x="300" y="330" />
            </Array>
          </mxGeometry>
        </mxCell>
        <mxCell id="n4P5VJZT2qDZIV0dBhrq-2" value="1,2" style="ellipse;whiteSpace=wrap;html=1;aspect=fixed;" parent="1" vertex="1">
          <mxGeometry x="120" y="130" width="80" height="80" as="geometry" />
        </mxCell>
        <mxCell id="n4P5VJZT2qDZIV0dBhrq-13" style="edgeStyle=orthogonalEdgeStyle;rounded=0;orthogonalLoop=1;jettySize=auto;html=1;" parent="1" source="n4P5VJZT2qDZIV0dBhrq-3" target="n4P5VJZT2qDZIV0dBhrq-2" edge="1">
          <mxGeometry relative="1" as="geometry" />
        </mxCell>
        <mxCell id="n4P5VJZT2qDZIV0dBhrq-27" style="edgeStyle=orthogonalEdgeStyle;rounded=0;orthogonalLoop=1;jettySize=auto;html=1;" parent="1" source="n4P5VJZT2qDZIV0dBhrq-3" target="n4P5VJZT2qDZIV0dBhrq-26" edge="1">
          <mxGeometry relative="1" as="geometry" />
        </mxCell>
        <mxCell id="n4P5VJZT2qDZIV0dBhrq-3" value="3" style="ellipse;whiteSpace=wrap;html=1;aspect=fixed;" parent="1" vertex="1">
          <mxGeometry x="200" y="290" width="80" height="80" as="geometry" />
        </mxCell>
        <mxCell id="n4P5VJZT2qDZIV0dBhrq-6" value="a" style="text;html=1;align=center;verticalAlign=middle;resizable=0;points=[];autosize=1;strokeColor=none;fillColor=none;" parent="1" vertex="1">
          <mxGeometry x="140" y="328" width="30" height="30" as="geometry" />
        </mxCell>
        <mxCell id="n4P5VJZT2qDZIV0dBhrq-9" value="b" style="text;html=1;align=center;verticalAlign=middle;resizable=0;points=[];autosize=1;strokeColor=none;fillColor=none;" parent="1" vertex="1">
          <mxGeometry x="40" y="370" width="30" height="30" as="geometry" />
        </mxCell>
        <mxCell id="n4P5VJZT2qDZIV0dBhrq-11" value="c" style="text;html=1;align=center;verticalAlign=middle;resizable=0;points=[];autosize=1;strokeColor=none;fillColor=none;" parent="1" vertex="1">
          <mxGeometry x="65" y="208" width="30" height="30" as="geometry" />
        </mxCell>
        <mxCell id="n4P5VJZT2qDZIV0dBhrq-14" value="b" style="text;html=1;align=center;verticalAlign=middle;resizable=0;points=[];autosize=1;strokeColor=none;fillColor=none;" parent="1" vertex="1">
          <mxGeometry x="220" y="155" width="30" height="30" as="geometry" />
        </mxCell>
        <mxCell id="n4P5VJZT2qDZIV0dBhrq-16" value="b" style="text;html=1;align=center;verticalAlign=middle;resizable=0;points=[];autosize=1;strokeColor=none;fillColor=none;" parent="1" vertex="1">
          <mxGeometry x="210" y="260" width="30" height="30" as="geometry" />
        </mxCell>
        <mxCell id="n4P5VJZT2qDZIV0dBhrq-19" style="edgeStyle=orthogonalEdgeStyle;rounded=0;orthogonalLoop=1;jettySize=auto;html=1;" parent="1" source="n4P5VJZT2qDZIV0dBhrq-18" target="n4P5VJZT2qDZIV0dBhrq-3" edge="1">
          <mxGeometry relative="1" as="geometry">
            <Array as="points">
              <mxPoint x="260" y="140" />
            </Array>
          </mxGeometry>
        </mxCell>
        <mxCell id="n4P5VJZT2qDZIV0dBhrq-18" value="1,2" style="ellipse;whiteSpace=wrap;html=1;aspect=fixed;" parent="1" vertex="1">
          <mxGeometry x="125" y="135" width="70" height="70" as="geometry" />
        </mxCell>
        <mxCell id="n4P5VJZT2qDZIV0dBhrq-22" value="a" style="text;html=1;align=center;verticalAlign=middle;resizable=0;points=[];autosize=1;strokeColor=none;fillColor=none;" parent="1" vertex="1">
          <mxGeometry x="195" y="110" width="30" height="30" as="geometry" />
        </mxCell>
        <mxCell id="n4P5VJZT2qDZIV0dBhrq-24" style="edgeStyle=orthogonalEdgeStyle;rounded=0;orthogonalLoop=1;jettySize=auto;html=1;" parent="1" source="n4P5VJZT2qDZIV0dBhrq-2" target="n4P5VJZT2qDZIV0dBhrq-2" edge="1">
          <mxGeometry relative="1" as="geometry">
            <Array as="points">
              <mxPoint x="150" y="110" />
            </Array>
          </mxGeometry>
        </mxCell>
        <mxCell id="n4P5VJZT2qDZIV0dBhrq-25" value="c" style="text;html=1;align=center;verticalAlign=middle;resizable=0;points=[];autosize=1;strokeColor=none;fillColor=none;" parent="1" vertex="1">
          <mxGeometry x="145" y="78" width="30" height="30" as="geometry" />
        </mxCell>
        <mxCell id="n4P5VJZT2qDZIV0dBhrq-26" value="morte" style="ellipse;whiteSpace=wrap;html=1;aspect=fixed;" parent="1" vertex="1">
          <mxGeometry x="200" y="430" width="80" height="80" as="geometry" />
        </mxCell>
        <mxCell id="n4P5VJZT2qDZIV0dBhrq-28" value="a,c" style="text;html=1;align=center;verticalAlign=middle;resizable=0;points=[];autosize=1;strokeColor=none;fillColor=none;" parent="1" vertex="1">
          <mxGeometry x="235" y="383.5" width="40" height="30" as="geometry" />
        </mxCell>
      </root>
    </mxGraphModel>
  </diagram>
</mxfile>
